<?xml version="1.0" encoding="utf-8"?>
<!-- Generator: Adobe Illustrator 16.0.0, SVG Export Plug-In . SVG Version: 6.00 Build 0)  -->
<!DOCTYPE svg PUBLIC "-//W3C//DTD SVG 1.1//EN" "http://www.w3.org/Graphics/SVG/1.1/DTD/svg11.dtd">
<svg version="1.1" id="Layer_1" xmlns="http://www.w3.org/2000/svg" xmlns:xlink="http://www.w3.org/1999/xlink" x="0px" y="0px"
	 width="60px" height="60px" viewBox="0 0 60 60" enable-background="new 0 0 60 60" xml:space="preserve">
<g>
	<g>
		<path fill="#E0004D" d="M43,23.358V5H16v18.358c0,0.315,0.104,0.632,0.104,0.952c0,7.401,6.07,13.4,13.471,13.4
			s13.432-5.999,13.432-13.4C43.006,23.99,43,23.673,43,23.358z"/>
	</g>
	<g>
		<rect x="26" y="37" fill="#E0004D" width="7" height="9"/>
	</g>
	<g>
		<path fill="#E0004D" d="M45,52.433C45,53.851,43.85,55,42.432,55H15.568C14.15,55,13,53.851,13,52.433v-4.865
			C13,46.149,14.15,45,15.568,45h26.864C43.85,45,45,46.149,45,47.567V52.433z"/>
	</g>
	<g>
		<path fill="#E0004D" d="M19.623,30.256c-0.186,0-0.375-0.033-0.559-0.102c-1.292-0.486-12.627-4.953-12.671-11.835
			c-0.032-4.908,2.624-5.962,2.926-6.04C9.449,12.246,9.582,12,9.715,12h8.153c0.875,0,1.585,0.624,1.585,1.5
			c0,0.875-0.71,1.5-1.585,1.5h-7.712c-0.237,1-0.603,1.367-0.592,2.984c0.025,3.99,7.872,8.007,10.619,9.045
			c0.819,0.309,1.232,1.303,0.924,2.122C20.867,29.786,20.264,30.256,19.623,30.256z"/>
	</g>
<g><path fill="#808080" stroke="#808080" stroke-width="2" stroke-linecap="round" stroke-linejoin="round" stroke-miterlimit="10" d="
	M41.129,32.731c2.209-2.577,3.551-6.69,3.551-10.339c0-8.161-6.658-15.164-14.869-15.164s-14.869,6.423-14.869,14.583
	c0,3.649,1.341,8.44,3.551,11.018C11.619,36.711,6.977,44,6.977,54h45.667C52.645,44,48.002,36.613,41.129,32.731z"/>
    </g>
</svg>